<svg width="64" height="64" viewBox="0 0 64 64" fill="none" xmlns="http://www.w3.org/2000/svg">
<g clip-path="url(#clip0_2375_2480)">
<path d="M33.0455 56.5189C34.677 57.4149 35.9703 58.7759 35.7167 60.6525C35.4631 62.5292 33.9753 63.9071 32.0987 63.9578C30.2221 64.0085 28.7427 62.7659 28.3623 61.0499C27.9566 59.1986 28.9203 57.3642 30.9152 56.6879V49.0377L26.6463 48.2431L26.6717 53.6701L23.1636 57.2712C23.7807 58.8266 23.3411 60.3144 22.1492 61.2105C20.9573 62.1065 19.2074 62.0304 18.0747 60.9569C16.9419 59.8833 16.7137 58.218 17.5844 56.9162C18.4551 55.6144 19.9851 55.0396 21.6504 55.7665L24.5499 52.8417L24.4992 47.2625C21.0249 45.538 18.4128 42.926 16.6883 39.4517L11.1261 39.4094L8.19275 42.3173C8.86902 43.8896 8.37873 45.369 7.20372 46.2566C6.02871 47.1442 4.26197 47.0765 3.12922 46.0114C1.99648 44.9463 1.76824 43.2725 2.63893 41.9707C3.50962 40.6689 5.05658 40.1026 6.69652 40.8126L10.2131 37.3214L15.7077 37.2792L14.9216 33.0356L7.33052 33.0102C6.65425 34.7516 5.09884 35.8759 3.32365 35.6646C1.44701 35.4617 0.0522179 33.9232 0.00149806 32.0888C-0.0492218 30.2545 1.19341 28.7329 2.90098 28.3525C4.76916 27.9382 6.60353 28.9104 7.27134 30.9054H14.9216L15.7077 26.6787L10.2046 26.6111L6.76414 23.1706C5.21719 23.7116 3.65333 23.3735 2.74037 22.1224C1.82741 20.8713 1.94576 19.1637 2.99397 18.0648C4.04218 16.9659 5.74975 16.7207 7.0431 17.5745C8.33646 18.4283 8.88592 20.0006 8.19275 21.6152L11.0246 24.4977L16.6207 24.54C18.3621 21.1671 20.9319 18.4198 24.4907 16.6953L24.5415 11.1077L21.642 8.19132C20.0443 8.88449 18.5903 8.36884 17.6943 7.20228C16.7982 6.03572 16.8828 4.25208 17.9394 3.14469C18.9961 2.03731 20.6867 1.78371 21.9886 2.64595C23.2904 3.50818 23.8314 5.07205 23.1467 6.69508L26.6294 10.2032L26.6632 15.7148L30.8983 14.954L30.9237 7.26991C28.9879 6.61055 28.0411 4.89453 28.3201 3.11933C28.599 1.34414 30.1206 0.0592345 31.8705 6.13658e-05C33.6203 -0.0591118 35.2433 1.19198 35.6237 2.87419C36.0549 4.76773 35.0574 6.6021 33.0624 7.27836V14.9117L37.3144 15.7063L37.3567 10.2117L40.8141 6.77116C40.2815 5.23266 40.6027 3.6688 41.8538 2.74739C43.1049 1.82598 44.8125 1.94432 45.9283 3.00099C47.0442 4.05765 47.2724 5.76522 46.4102 7.05857C45.5479 8.35193 43.9841 8.89294 42.3695 8.20822L39.4869 11.0401L39.4531 16.6277C42.8344 18.3691 45.5902 20.9305 47.3062 24.4977L52.8854 24.5485L55.8187 21.6405C55.134 20.0429 55.6243 18.5889 56.7993 17.6928C58.0335 16.7545 59.7495 16.8729 60.8738 17.9295C61.9981 18.9862 62.2263 20.6853 61.3641 21.9871C60.5018 23.2889 58.938 23.8215 57.3149 23.1452L53.7984 26.628L48.2952 26.6618L49.056 30.8969L56.7232 30.9307C57.391 29.0034 59.0901 28.0228 60.9076 28.3186C62.6321 28.5976 63.9592 30.1192 64.0184 31.869C64.0776 33.6189 62.818 35.2419 61.1274 35.6223C59.2423 36.0534 57.4164 35.0475 56.7316 33.061H49.0899L48.2952 37.313L53.8068 37.3468L57.3234 40.8295C58.8788 40.1871 60.375 40.6436 61.2626 41.827C62.1502 43.0105 62.091 44.7772 61.0175 45.91C59.9439 47.0427 58.2701 47.2625 56.9683 46.3918C55.6665 45.5211 55.1171 43.9742 55.8187 42.3427L52.9953 39.4686L47.3907 39.4347C45.6325 42.8161 43.088 45.5549 39.4954 47.2879V52.9262L42.3948 55.7665C43.9333 55.1156 45.438 55.5806 46.3256 56.7556C47.2555 57.9898 47.1541 59.7058 46.0805 60.8385C45.0069 61.9713 43.3332 62.191 42.0313 61.3204C40.7295 60.4497 40.1801 58.9112 40.8817 57.2628L37.382 53.7462L37.3398 48.26L33.0877 49.0546L33.0708 56.5189H33.0455ZM33.5865 3.71106C33.5865 2.83192 32.868 2.11339 31.9888 2.11339C31.1097 2.11339 30.3911 2.83192 30.3911 3.71106C30.3911 4.59021 31.1097 5.30874 31.9888 5.30874C32.868 5.30874 33.5865 4.59021 33.5865 3.71106ZM21.3123 5.30874C21.3123 4.71701 20.8305 4.24362 20.2387 4.24362C19.647 4.24362 19.1651 4.72546 19.1651 5.30874C19.1651 5.89202 19.647 6.37386 20.2387 6.37386C20.8305 6.37386 21.3123 5.89202 21.3123 5.30874ZM44.7956 5.30874C44.7956 4.71701 44.3137 4.24362 43.722 4.24362C43.1303 4.24362 42.6484 4.72546 42.6484 5.30874C42.6484 5.89202 43.1303 6.37386 43.722 6.37386C44.3137 6.37386 44.7956 5.89202 44.7956 5.30874ZM46.9258 31.9789C46.9258 23.7285 40.2393 17.0419 31.9804 17.0419C23.7215 17.0419 17.0349 23.7285 17.0349 31.9789C17.0349 40.2294 23.7215 46.9159 31.9804 46.9159C40.2393 46.9159 46.9258 40.2294 46.9258 31.9789ZM6.37529 20.2457C6.37529 19.654 5.89345 19.1806 5.30172 19.1806C4.70999 19.1806 4.22815 19.6625 4.22815 20.2457C4.22815 20.829 4.70999 21.3109 5.30172 21.3109C5.89345 21.3109 6.37529 20.829 6.37529 20.2457ZM59.7326 20.2457C59.7326 19.654 59.2507 19.1806 58.659 19.1806C58.0673 19.1806 57.5854 19.6625 57.5854 20.2457C57.5854 20.829 58.0673 21.3109 58.659 21.3109C59.2507 21.3109 59.7326 20.829 59.7326 20.2457ZM5.30172 31.9789C5.30172 31.0998 4.58319 30.3813 3.70405 30.3813C2.8249 30.3813 2.10637 31.0998 2.10637 31.9789C2.10637 32.8581 2.8249 33.5766 3.70405 33.5766C4.58319 33.5766 5.30172 32.8581 5.30172 31.9789ZM61.8628 31.9789C61.8628 31.0998 61.1443 30.3813 60.2651 30.3813C59.386 30.3813 58.6675 31.0998 58.6675 31.9789C58.6675 32.8581 59.386 33.5766 60.2651 33.5766C61.1443 33.5766 61.8628 32.8581 61.8628 31.9789ZM6.37529 43.7121C6.37529 43.1204 5.89345 42.647 5.30172 42.647C4.70999 42.647 4.22815 43.1288 4.22815 43.7121C4.22815 44.2954 4.70999 44.7772 5.30172 44.7772C5.89345 44.7772 6.37529 44.2954 6.37529 43.7121ZM59.7326 43.7121C59.7326 43.1204 59.2507 42.647 58.6675 42.647C58.0842 42.647 57.6023 43.1288 57.6023 43.7121C57.6023 44.2954 58.0842 44.7772 58.6675 44.7772C59.2507 44.7772 59.7326 44.2954 59.7326 43.7121ZM21.3123 58.6491C21.3123 58.0574 20.8305 57.584 20.2387 57.584C19.647 57.584 19.1651 58.0658 19.1651 58.6491C19.1651 59.2324 19.647 59.7142 20.2387 59.7142C20.8305 59.7142 21.3123 59.2324 21.3123 58.6491ZM44.7956 58.6491C44.7956 58.0574 44.3137 57.584 43.7305 57.584C43.1472 57.584 42.6653 58.0658 42.6653 58.6491C42.6653 59.2324 43.1472 59.7142 43.7305 59.7142C44.3137 59.7142 44.7956 59.2324 44.7956 58.6491ZM33.5865 60.2468C33.5865 59.3676 32.868 58.6491 31.9888 58.6491C31.1097 58.6491 30.3911 59.3676 30.3911 60.2468C30.3911 61.1259 31.1097 61.8445 31.9888 61.8445C32.868 61.8445 33.5865 61.1259 33.5865 60.2468Z" fill="#B86A2E"/>
<path d="M42.6136 37.9386L31.9708 43.8559L21.3281 37.9555V26.0363L31.9877 20.1274L42.622 26.0532V37.947L42.6136 37.9386ZM39.3928 26.6534L31.9877 22.5282L24.5826 26.6534L31.9962 30.7871L39.4013 26.6534H39.3928ZM30.8973 40.8127L30.9142 32.6045L23.4499 28.4793V36.7297L30.8973 40.8127ZM33.1036 40.7873L40.5256 36.7128L40.4833 28.4793L33.0106 32.6299L33.1036 40.7789V40.7873Z" fill="#B86A2E"/>
</g>
<defs>
<clipPath id="clip0_2375_2480">
<rect width="64" height="63.9577" fill="white"/>
</clipPath>
</defs>
</svg>
