<svg width="72" height="72" viewBox="0 0 72 72" fill="none" xmlns="http://www.w3.org/2000/svg">
<path d="M35.7139 4.83301C35.997 4.81837 36.2732 4.92456 36.4727 5.12402C42.1961 10.8991 49.1909 12.8256 57.8535 11.0098C58.3288 10.9113 58.8043 11.1721 58.9746 11.625C61.6701 18.6693 62.8721 25.7559 62.5469 32.6797C62.2364 39.1278 60.558 45.324 57.6777 50.6064C55.3421 54.8886 52.3043 58.5005 48.6455 61.334C44.967 64.2044 40.6803 66.1934 36.1172 67.1494C36.0507 67.1617 35.9816 67.1689 35.915 67.1689C35.8362 67.1689 35.7599 67.1588 35.6836 67.1416C26.6342 65.0349 18.9019 59.1936 14.4053 51.0625C8.44528 40.4362 7.78468 26.4457 12.5498 11.6748C12.7051 11.1921 13.2032 10.9064 13.6982 11.0146C23.3418 13.1212 30.3078 11.2221 34.9941 5.21289C35.1691 4.98868 35.4305 4.85025 35.7139 4.83301ZM35.8545 7.27051C30.8798 13.0014 23.5911 14.9728 14.1621 13.125C9.86031 27.0531 10.5503 40.1552 16.1309 50.0996C20.4029 57.7152 27.4341 63.0622 35.9346 65.1738C44.398 63.3308 51.4994 57.8311 55.9541 49.666V49.667C61.6111 39.2791 62.1387 25.9983 57.4229 13.1025C53.0221 13.9131 48.932 13.7822 45.251 12.7178C41.8267 11.7322 38.6681 9.89441 35.8545 7.27051ZM35.7295 10.6133C36.0127 10.5961 36.2888 10.6995 36.4883 10.9014C40.6244 15.0712 47.244 16.8756 53.8945 15.6807L54.5381 15.5557C55.0085 15.4574 55.4833 15.7163 55.6582 16.167C56.6462 18.7419 57.356 21.4151 57.7773 24.1377H57.7803C57.8246 24.3989 57.7626 24.6675 57.6074 24.8818C57.4547 25.0962 57.2206 25.2418 56.957 25.2812C56.6959 25.3231 56.4296 25.2567 56.2178 25.0967C56.0324 24.9587 55.9016 24.7601 55.8486 24.5361L55.8311 24.4404C55.4713 22.1248 54.8895 19.8506 54.0986 17.6455C47.2689 18.833 40.444 17.0986 35.8662 13.0234C33.8901 15.1744 31.1749 16.7164 27.9521 17.5146C24.7788 18.2981 21.1916 18.35 17.5254 17.665C14.1795 29.1889 15.1129 40.1557 20.1885 48.6514C23.8841 54.836 29.6259 59.1161 35.958 60.4121C40.3291 59.734 45.2074 56.3533 49.0264 51.332C53.3477 45.6502 55.9004 38.5634 56.2158 31.374C56.2381 30.8296 56.6987 30.406 57.2432 30.4307C57.7876 30.4554 58.2087 30.916 58.1865 31.458L58.1846 31.46C57.8522 39.0467 55.151 46.5274 50.5928 52.5195C46.3548 58.0828 41.0581 61.6777 36.0664 62.375C36.0221 62.3799 35.975 62.3823 35.9307 62.3848C35.8666 62.3848 35.8023 62.3775 35.7383 62.3652H35.7412C32.2181 61.663 28.8992 60.182 26.0215 58.0361V58.0332C23.038 55.8403 20.5047 53.0171 18.4893 49.6465C15.8849 45.2949 14.2977 40.303 13.7754 34.8135C13.2112 28.8883 13.9235 22.6421 15.8945 16.2363C16.0448 15.7461 16.5452 15.4522 17.0479 15.5605V15.5635C24.637 17.2192 31.5184 15.4674 35.0098 10.9932C35.1822 10.7689 35.4462 10.6305 35.7295 10.6133ZM36.1191 23.7969C39.758 23.7995 42.7092 26.7488 42.7119 30.3877V32.0361C46.2008 33.8767 47.9847 37.8611 47.0361 41.6875C46.085 45.5164 42.6507 48.2041 38.7061 48.2041H32.9971C29.0525 48.204 25.618 45.5163 24.667 41.6875C23.7185 37.861 25.502 33.8767 28.9883 32.0361V30.3877C28.9935 26.7513 31.943 23.8018 35.582 23.7969H36.1191ZM33 33.0098C31.231 32.9876 29.5256 33.6723 28.2666 34.9141C27.0076 36.1583 26.2979 37.854 26.2979 39.623C26.2979 41.392 27.0076 43.0874 28.2666 44.3291C29.5256 45.5707 31.2311 46.258 33 46.2334H38.7061C42.3552 46.2289 45.3119 43.2695 45.3145 39.623L45.3184 39.6201C45.3139 35.9714 42.355 33.0148 38.7061 33.0098H33ZM35.9141 37.7998C36.1752 37.7998 36.4266 37.9061 36.6113 38.0908C36.7961 38.2756 36.8994 38.525 36.8994 38.7861V41.5205C36.8994 42.065 36.4585 42.5058 35.9141 42.5059C35.3695 42.5059 34.9287 42.065 34.9287 41.5205V38.7861C34.9287 38.2441 35.3695 37.7998 35.9141 37.7998ZM35.582 25.7686C33.0321 25.771 30.9651 27.8378 30.96 30.3877V30.3906L30.9648 31.2852C31.63 31.1226 32.3127 31.0391 33 31.0391H38.7031C39.3906 31.0391 40.0735 31.1225 40.7412 31.2852V30.3877C40.7361 27.8378 38.6691 25.7711 36.1191 25.7686H35.582Z" fill="#B86A2E"/>
</svg>
